<svg xmlns="http://www.w3.org/2000/svg" viewBox="0 0 64 64" role="img" aria-labelledby="title">
  <title>SICOIL</title>
  <defs>
    <linearGradient id="bg" x1="0%" y1="0%" x2="100%" y2="100%">
      <stop offset="0%" stop-color="#0f172a"/>
      <stop offset="100%" stop-color="#115e59"/>
    </linearGradient>
    <linearGradient id="drop" x1="0%" y1="0%" x2="0%" y2="100%">
      <stop offset="0%" stop-color="#fed7aa"/>
      <stop offset="100%" stop-color="#b45309"/>
    </linearGradient>
    <linearGradient id="ring" x1="0%" y1="0%" x2="100%" y2="0%">
      <stop offset="0%" stop-color="#0ea5e9"/>
      <stop offset="100%" stop-color="#2dd4bf"/>
    </linearGradient>
    <radialGradient id="spark" cx="0.35" cy="0.28" r="0.45">
      <stop offset="0%" stop-color="#f8fafc" stop-opacity="0.9"/>
      <stop offset="100%" stop-color="#f1f5f9" stop-opacity="0"/>
    </radialGradient>
  </defs>
  <rect x="4" y="4" width="56" height="56" rx="14" ry="14" fill="url(#bg)" stroke="#134e4a" stroke-width="2"/>
  <path d="M10 26c4 4 9-4 13 0s8 4 12 0 8-4 12 0 8 4 12 0" fill="none" stroke="#38bdf8" stroke-width="2" stroke-linecap="round" opacity="0.55"/>
  <path d="M12 34c6 4 12-4 18 0s12 4 18 0 12-4 18 0" fill="none" stroke="#5eead4" stroke-width="1.8" stroke-linecap="round" opacity="0.35"/>
  <circle cx="20" cy="44" r="8.5" fill="none" stroke="url(#ring)" stroke-width="2"/>
  <circle cx="20" cy="44" r="3" fill="#22d3ee"/>
  <path d="M32 8s-14 22-14 32c0 8.3 6.5 14 14 14s14-5.7 14-14c0-10-14-32-14-32z" fill="url(#drop)" stroke="#9a3412" stroke-width="1.4"/>
  <path d="M26 25.5c2.5-3.5 6-9.5 6-9.5s3.5 6 6 9.5c2 2.8 3 5.5 3 7.5 0 5-4 9-9 9s-9-4-9-9c0-2 1-4.7 3-7.5z" fill="#ffffff" opacity="0.15"/>
  <path d="M25 35c2.5 1.5 4.5 2.3 7 2.3s4.5-.8 7-2.3" fill="none" stroke="#fed7aa" stroke-width="2" stroke-linecap="round" opacity="0.7"/>
  <circle cx="20" cy="18" r="7" fill="url(#spark)"/>
  <circle cx="48" cy="50" r="3" fill="#fde68a" stroke="#facc15"/>
</svg>
