<svg xmlns="http://www.w3.org/2000/svg" viewBox="0 0 64 64" role="img" aria-labelledby="title">
  <title>Hotel</title>
  <defs>
    <linearGradient id="bg" x1="0" y1="0" x2="1" y2="1">
      <stop offset="0" stop-color="#0f766e"/>
      <stop offset="1" stop-color="#1d4ed8"/>
    </linearGradient>
    <linearGradient id="building" x1="0" y1="0" x2="0" y2="1">
      <stop offset="0" stop-color="#f8fafc"/>
      <stop offset="1" stop-color="#dbeafe"/>
    </linearGradient>
  </defs>

  <rect x="4" y="4" width="56" height="56" rx="14" fill="url(#bg)"/>
  <rect x="18" y="16" width="28" height="36" rx="4" fill="url(#building)" stroke="#0f172a" stroke-opacity="0.25"/>

  <rect x="23" y="21" width="5" height="5" rx="1" fill="#38bdf8"/>
  <rect x="30" y="21" width="5" height="5" rx="1" fill="#22d3ee"/>
  <rect x="37" y="21" width="5" height="5" rx="1" fill="#38bdf8"/>

  <rect x="23" y="29" width="5" height="5" rx="1" fill="#22d3ee"/>
  <rect x="30" y="29" width="5" height="5" rx="1" fill="#38bdf8"/>
  <rect x="37" y="29" width="5" height="5" rx="1" fill="#22d3ee"/>

  <rect x="23" y="37" width="5" height="5" rx="1" fill="#38bdf8"/>
  <rect x="37" y="37" width="5" height="5" rx="1" fill="#38bdf8"/>

  <rect x="29" y="39" width="6" height="13" rx="1.5" fill="#0f172a"/>
  <path d="M16 52h32" stroke="#f8fafc" stroke-opacity="0.55" stroke-width="2" stroke-linecap="round"/>
</svg>
